<?xml version="1.0" standalone="no"?>
<!DOCTYPE svg PUBLIC "-//W3C//DTD SVG 1.1//EN" "http://www.w3.org/Graphics/SVG/1.1/DTD/svg11.dtd">
<svg xmlns="http://www.w3.org/2000/svg" viewBox="0 0 966.25 183.85" width="966.25" height="183.85000610351562"><defs><style>.cls-1{fill:#2390cf;}.cls-2{fill:#ec8a1a;}.cls-3{fill:#6bb533;}</style></defs><title>Asset 6</title><g id="Layer_2" data-name="Layer 2"><g id="Layer_1-2" data-name="Layer 1"><g id="_0093ddff" data-name="#0093ddff"><path class="cls-1" d="M46.08,0H77.74a2.77,2.77,0,0,1,2.12,2.07,5.87,5.87,0,0,1-.28,2.84c-1.89,8.16-3.81,16.32-5.69,24.48l-.64.35-.14.05-.1.05-1.13.5-.25.12-.08,0,0,0c-.39.16-.78.32-1.17.5l0,0-.29.14-.06,0-.3.14-.25.14-.08,0,0,0c-.51.21-1,.44-1.5.68l-.06,0-.07,0-.25.12-.31.15-.06,0-.29.14-.06,0-.28.13-.06,0-.29.14,0,0-.21.1-.36.18-.54.24-.1.06-.62.29,0,0c-.33.17-.66.34-1,.49l0,0-.08,0-.24.13-1.25.62a.65.65,0,0,0-.57.3c-.73.34-1.44.72-2.15,1.1l-.23.13-.07,0-.06,0-.07,0-.26.12-.3.15,0,0-.28.15,0,0-1.83,1-.11,0c-.82.43-1.61.89-2.42,1.34-1.18.61-2.32,1.29-3.45,2A37,37,0,0,0,53,40.08c1.22-.63,2.47-1.21,3.71-1.81l0,0,.3-.14.06,0,.29-.14.05,0,.29-.13,0,0,1.81-.84.11,0L61.53,36l0,0,.3-.13.05,0,.22-.1.36-.17.56-.23.07,0,.56-.25.36-.17c.61-.24,1.19-.52,1.79-.77l.24-.13.08,0,0,0,.45-.17.06,0,.58-.25.36-.16.85-.34.37-.17.21-.07,0,0,.21-.08.37-.19.24-.07.25-.12.08,0,.06,0,.06,0,.53-.19.21-.08.06,0,.22-.08.35-.18h.16l.35-.18.5-.17.37-.18.27-.09a1.25,1.25,0,0,1,0,.43Q71.19,40.9,69,50.35a18.26,18.26,0,0,1-.4,2.06,3.06,3.06,0,0,0,.83,2.89,3.25,3.25,0,0,0,2.34.76h36.11a5.13,5.13,0,0,1,2.13.26,2.74,2.74,0,0,1,1.64,2.11,8.5,8.5,0,0,1-.44,3.11L99.36,112.42a5.16,5.16,0,0,1-3.6,3.85,10,10,0,0,1-2.5.16q-23.34,0-46.66,0c0-.52,0-1,0-1.55,4.27-1,8.56-2.39,12.06-5.11a16,16,0,0,0,5.79-8.67Q68.75,82.54,73.08,64a3,3,0,0,0-1.2-3.21,4.75,4.75,0,0,0-2.68-.48H43.25a3,3,0,0,0-.85,0A127.79,127.79,0,0,0,28.59,74.05a84.89,84.89,0,0,0-11,15.82c-3.5,6.69-5.95,14.09-6,21.7a33.32,33.32,0,0,0,6.5,20.36A45.13,45.13,0,0,0,33,144.53a79.05,79.05,0,0,0,19.8,7.29c0,.13,0,.4-.05.53-.64,2.6-1.22,5.22-1.84,7.83a104.79,104.79,0,0,1-13.36-2.74A74.16,74.16,0,0,1,20,150.28a43.07,43.07,0,0,1-14.37-13A33.16,33.16,0,0,1,.09,116.38c.47-7.42,3.1-14.55,6.67-21a90.58,90.58,0,0,1,12-16.53,145.38,145.38,0,0,1,20.5-18.54c-2.15,0-4.31,0-6.46,0a2.87,2.87,0,0,1-2.58-1.54,3.73,3.73,0,0,1-.12-2.69Q36.19,29.92,42.28,3.79A5.24,5.24,0,0,1,46.08,0Z"/><path class="cls-1" d="M201.38,120a29.55,29.55,0,0,1,2.74-1.68c-3,2.29-6.19,4.36-9.36,6.42A240,240,0,0,1,140,150.18a237.4,237.4,0,0,1-51.67,10.73c0-.13.07-.41.09-.54.44-1.8.84-3.6,1.27-5.39a208.67,208.67,0,0,0,29.8-3.4,245.08,245.08,0,0,0,44.1-12.7A226.85,226.85,0,0,0,201.38,120Z"/></g><g id="_eb891bff" data-name="#eb891bff"><path class="cls-2" d="M135,0h48.56a14.42,14.42,0,0,1,0,1.47,34.87,34.87,0,0,0-7.88,2.67,19,19,0,0,0-6.49,5A129.77,129.77,0,0,1,198.74,13a73,73,0,0,1,20.46,8.56A40.69,40.69,0,0,1,232.88,35.2a33.3,33.3,0,0,1,4.44,14v5.39a50.07,50.07,0,0,1-5.86,19.29,87.52,87.52,0,0,1-12,17.17,153.3,153.3,0,0,1-30,25.53,2.12,2.12,0,0,1-.76.39.73.73,0,0,1,.26-.29,142.49,142.49,0,0,0,21.71-19.94,87.27,87.27,0,0,0,11.85-17.18,49.18,49.18,0,0,0,5.74-20.11,33.86,33.86,0,0,0-2.13-13.59A36.72,36.72,0,0,0,214.9,30.66a60.54,60.54,0,0,0-17.84-9.83,113,113,0,0,0-30.9-6l-6.42,27.59c-.78,3.45-1.67,6.89-2.31,10.37a2.92,2.92,0,0,0,1.37,2.9,4.78,4.78,0,0,0,2.54.41h36.09a3.14,3.14,0,0,1,2.37.88,3.22,3.22,0,0,1,.65,3.08l-12.09,51.92a5.17,5.17,0,0,1-5,4.49H153.61a3.06,3.06,0,0,1-2.37-1,3.19,3.19,0,0,1-.59-2.9L162,64a3,3,0,0,0-1.21-3.21,4.94,4.94,0,0,0-2.84-.47H122a3.09,3.09,0,0,1-2.37-.85,3.18,3.18,0,0,1-.7-3q4.65-20,9.3-39.94A248,248,0,0,0,73.43,31l-.27.09-.37.18-.5.17-.15,0-.2.22h-.16l-.35.18-.22.08-.06,0-.21.08-.53.19-.06,0-.06,0-.08,0-.25.12-.24.07-.37.19-.21.08,0,0-.21.07-.37.17-.85.34-.15,0-.21.2-.58.25-.06,0-.45.17,0,0-.08,0-.24.13c-.6.25-1.18.53-1.79.77l-.15,0-.21.21-.56.25-.07,0-.56.23-.15,0-.21.21-.22.1-.05,0-.3.13,0,0-1.82.84-.11,0-1.81.84,0,0-.29.13-.05,0-.29.14-.06,0-.3.14,0,0c-1.24.6-2.49,1.18-3.71,1.81h-.27l.32-.31c.81-.45,1.6-.91,2.42-1.34l.11,0,1.83-1,0,0,.28-.15,0,0,.3-.15.26-.12.07,0,.06,0,.07,0,.23-.13c.71-.38,1.42-.76,2.15-1.1.26.19.52,0,.57-.3l1.25-.62.24-.13.08,0,0,0c.33-.15.66-.32,1-.49l0,0,.62-.29.1-.06.54-.24.15,0,.21-.21.21-.1,0,0,.29-.14.06,0,.28-.13.06,0,.29-.14.06,0,.31-.15.25-.12.07,0,.06,0c.5-.24,1-.47,1.5-.68l0,0,.08,0,.25-.14.3-.14.06,0,.29-.14,0,0c.39-.18.78-.34,1.17-.5l0,0,.08,0,.25-.12,1.13-.5.1-.05.14-.05a254.62,254.62,0,0,1,55.88-17.23c.68-2.9,1.35-5.81,2-8.72A5.25,5.25,0,0,1,135,0Z"/></g><g id="_68b92eff" data-name="#68b92eff"><path class="cls-3" d="M73,29.84l.1-.05Z"/><path class="cls-3" d="M71.63,30.46l.25-.12Z"/><path class="cls-3" d="M71.5,30.52l0,0Z"/><path class="cls-3" d="M70.29,31l0,0Z"/><path class="cls-3" d="M69.94,31.21l.06,0Z"/><path class="cls-3" d="M72.79,31.29l.37-.18Z"/><path class="cls-3" d="M69.39,31.49l.25-.14Z"/><path class="cls-3" d="M69.26,31.55l0,0Z"/><path class="cls-3" d="M71.94,31.64l.2-.22.15,0Z"/><path class="cls-3" d="M71.43,31.82l.35-.18Z"/><path class="cls-3" d="M71.15,31.92l.06,0Z"/><path class="cls-3" d="M70.41,32.19l.53-.19Z"/><path class="cls-3" d="M67.7,32.25l.06,0Z"/><path class="cls-3" d="M70.29,32.25l.06,0Z"/><path class="cls-3" d="M67.38,32.41l.25-.12Z"/><path class="cls-3" d="M70,32.41l.25-.12Z"/><path class="cls-3" d="M67,32.58l.06,0Z"/><path class="cls-3" d="M69.35,32.67l.37-.19Z"/><path class="cls-3" d="M66.66,32.75l.06,0Z"/><path class="cls-3" d="M69.09,32.77l0,0Z"/><path class="cls-3" d="M66.32,32.91l.06,0Z"/><path class="cls-3" d="M68.51,33l.37-.17Z"/><path class="cls-3" d="M66,33.07l0,0Z"/><path class="cls-3" d="M65.41,33.35l.36-.18-.21.21Z"/><path class="cls-3" d="M67.3,33.51l.21-.2.15,0Z"/><path class="cls-3" d="M64.77,33.65l.1-.06Z"/><path class="cls-3" d="M66.66,33.78l.06,0Z"/><path class="cls-3" d="M64.11,34l0,0Z"/><path class="cls-3" d="M66.16,34l0,0Z"/><path class="cls-3" d="M65.84,34.13l.24-.13Z"/><path class="cls-3" d="M63.07,34.49l0,0Z"/><path class="cls-3" d="M62.75,34.66l.24-.13Z"/><path class="cls-3" d="M63.69,35.07l.21-.21.15,0Z"/><path class="cls-3" d="M60.93,35.58a.65.65,0,0,1,.57-.3C61.45,35.54,61.19,35.77,60.93,35.58Z"/><path class="cls-3" d="M63.06,35.35l.07,0Z"/><path class="cls-3" d="M62.14,35.75l.21-.21.15,0Z"/><path class="cls-3" d="M61.87,35.87l.05,0Z"/><path class="cls-3" d="M61.53,36l0,0Z"/><path class="cls-3" d="M58.55,36.81l.23-.13Z"/><path class="cls-3" d="M58.42,36.89l.06,0Z"/><path class="cls-3" d="M59.6,36.91l.11,0Z"/><path class="cls-3" d="M58.09,37.05l.26-.12Z"/><path class="cls-3" d="M57.74,37.23l0,0Z"/><path class="cls-3" d="M57.42,37.41l0,0Z"/><path class="cls-3" d="M57.75,37.77l0,0Z"/><path class="cls-3" d="M57.41,37.93l.05,0Z"/><path class="cls-3" d="M57.06,38.1l.06,0Z"/><path class="cls-3" d="M56.72,38.27l0,0Z"/><path class="cls-3" d="M55.48,38.44l.11,0Z"/><path class="cls-3" d="M49.61,41.76c1.13-.69,2.27-1.37,3.45-2l-.32.31H53A37,37,0,0,1,49.61,41.76Z"/><path class="cls-3" d="M116.05,71.33a5.07,5.07,0,0,1,4.89-4q14.87,0,29.72,0a3,3,0,0,1,2.67,1.34,3.4,3.4,0,0,1,.29,2.67l-12.21,52.42a5.09,5.09,0,0,1-4.83,3.94H101.34a8.08,8.08,0,0,0-3,.29,5.17,5.17,0,0,0-3.16,3.51Q92.42,143.24,89.69,155c-.43,1.79-.83,3.59-1.27,5.39-1.45,6.38-3,12.75-4.44,19.13a5.14,5.14,0,0,1-4.81,4.35q-15,0-29.9,0a3.07,3.07,0,0,1-2.38-1,3.2,3.2,0,0,1-.58-2.92c1.54-6.59,3.06-13.19,4.61-19.78.62-2.61,1.2-5.23,1.84-7.83,1.88-8.28,3.84-16.55,5.76-24.82a5.09,5.09,0,0,1,4.81-4H100a5,5,0,0,0,4.33-2.58,7.38,7.38,0,0,0,.72-2.2Q110.54,95,116.05,71.33Z"/></g><path class="cls-1" d="M259,61.1l8.46-40.38h13.8a49,49,0,0,1,6.28.27,13.31,13.31,0,0,1,5,1.66,8.3,8.3,0,0,1,3.14,3.3,9.83,9.83,0,0,1,1.07,4.57,9.33,9.33,0,0,1-1.87,5.83,11.42,11.42,0,0,1-5.79,3.73,9,9,0,0,1,4.86,3.05,7.68,7.68,0,0,1,1.75,4.94,12.77,12.77,0,0,1-2.06,6.9,11.65,11.65,0,0,1-5.7,4.7A28,28,0,0,1,278,61.1Zm9.67-6.5h8A22.89,22.89,0,0,0,283.4,54a5.75,5.75,0,0,0,2.75-2.13,5.43,5.43,0,0,0,1-3.14,4.2,4.2,0,0,0-1.49-3.32c-1-.88-2.64-1.31-4.95-1.31h-9.92ZM272.28,37h6.34a22.25,22.25,0,0,0,6.14-.6,5.1,5.1,0,0,0,3.74-4.93,3.69,3.69,0,0,0-.88-2.54,4.38,4.38,0,0,0-2.5-1.32,34.14,34.14,0,0,0-4.38-.16h-6.45Z"/><path class="cls-1" d="M326.18,52.17h-16l-4.85,8.93H296.8l22.83-40.38h9.23l6.55,40.38h-7.88Zm-1-6.72L322.82,29.2l-9.75,16.25Z"/><path class="cls-1" d="M340.62,61.1l8.45-40.38H360c3,0,5,.05,5.81.14a16.29,16.29,0,0,1,4.48,1A12.14,12.14,0,0,1,373.82,24a13.56,13.56,0,0,1,2.78,3.34,16.81,16.81,0,0,1,1.81,4.51,23.25,23.25,0,0,1,.63,5.58,25.88,25.88,0,0,1-2.49,11.58,22.9,22.9,0,0,1-6.27,8,18.81,18.81,0,0,1-7.46,3.41,37.6,37.6,0,0,1-8,.61Zm9.67-6.5h4.21a27.24,27.24,0,0,0,6.62-.57,9.22,9.22,0,0,0,3.76-2.1A17.79,17.79,0,0,0,369,46a21.29,21.29,0,0,0,1.68-8.76q0-4.3-1.4-6.46a6.76,6.76,0,0,0-3.42-2.88,17.79,17.79,0,0,0-5.1-.5H356Z"/><path class="cls-1" d="M407.66,52.17h-16l-4.85,8.93h-8.54L401.1,20.72h9.23l6.56,40.38H409Zm-1-6.72L404.3,29.2l-9.75,16.25Z"/><path class="cls-1" d="M454.24,61.1H446.5L435.59,34,429.91,61.1h-7.74l8.43-40.38h7.77l10.94,27,5.64-27h7.71Z"/><path class="cls-1" d="M486.65,61.1h-8.31l8.45-40.38h16.42a18.88,18.88,0,0,1,6.93,1,8.39,8.39,0,0,1,4,3.42,10.53,10.53,0,0,1,1.49,5.69,15.51,15.51,0,0,1-1.19,5.94,14.18,14.18,0,0,1-2.9,4.63,12.21,12.21,0,0,1-3.71,2.63,20.11,20.11,0,0,1-5.34,1.37,64.37,64.37,0,0,1-7.33.27h-5.31ZM491.25,39h2.57q6.57,0,8.78-.83a7.16,7.16,0,0,0,3.47-2.64,6.82,6.82,0,0,0,1.27-4,4.11,4.11,0,0,0-.65-2.39,3.68,3.68,0,0,0-1.82-1.37,19.65,19.65,0,0,0-5.22-.42h-5.94Z"/><path class="cls-1" d="M524.44,20.72h8.29l-4.57,21.92L527,48a8.66,8.66,0,0,0-.11,1.3,5.09,5.09,0,0,0,1.75,3.95,7.41,7.41,0,0,0,5.08,1.56,9.81,9.81,0,0,0,5-1.13,7.53,7.53,0,0,0,3-3.36,36.27,36.27,0,0,0,2.18-7.58l4.63-22.06h8.29l-4.6,22.09a44.36,44.36,0,0,1-3.36,10.66,14.93,14.93,0,0,1-5.76,6,18.62,18.62,0,0,1-9.75,2.32q-7.05,0-10.8-3.46a11.53,11.53,0,0,1-3.74-8.88A16.72,16.72,0,0,1,519,47c.07-.59.39-2.26,1-5Z"/><path class="cls-1" d="M558,48l7.91-.41q.17,3.78,1.29,5.1,1.81,2.14,6.72,2.15,4.08,0,5.9-1.46a4.41,4.41,0,0,0,1.82-3.53,3.82,3.82,0,0,0-1.49-3,28.74,28.74,0,0,0-5.74-2.95,54,54,0,0,1-6.86-3.4,9.93,9.93,0,0,1-3.4-3.54,10.08,10.08,0,0,1-1.24-5.09,11,11,0,0,1,3.69-8.46Q570.28,20,577.27,20t11,3.33a12.3,12.3,0,0,1,4.28,8.87l-8,.36a6.45,6.45,0,0,0-2.09-4.43,7.91,7.91,0,0,0-5.29-1.55q-3.45,0-4.92,1.22a3.77,3.77,0,0,0-1.47,3.05,3.59,3.59,0,0,0,1.35,2.87,27.83,27.83,0,0,0,6,3.16q7,3,8.87,4.88a9.42,9.42,0,0,1,2.84,7.08A11.82,11.82,0,0,1,585.63,58q-4.23,3.78-11.77,3.79a21.57,21.57,0,0,1-9-1.75,10.78,10.78,0,0,1-5.39-4.86A14.94,14.94,0,0,1,558,48Z"/><path class="cls-1" d="M620.79,52.17h-16l-4.85,8.93H591.4l22.84-40.38h9.22L630,61.1h-7.88Zm-1-6.72L617.43,29.2l-9.75,16.25Z"/><path class="cls-1" d="M648.47,61.1h-8.31l7.05-33.63H635.36l1.41-6.75h31.81l-1.4,6.75H655.5Z"/><path class="cls-1" d="M682.3,48l7.9-.41q.16,3.78,1.3,5.1,1.82,2.14,6.72,2.15,4.08,0,5.89-1.46a4.41,4.41,0,0,0,1.82-3.53,3.82,3.82,0,0,0-1.49-3,28.43,28.43,0,0,0-5.74-2.95,54.75,54.75,0,0,1-6.86-3.4,9.75,9.75,0,0,1-4.64-8.63,11,11,0,0,1,3.69-8.46Q694.58,20,701.58,20t11,3.33a12.31,12.31,0,0,1,4.29,8.87l-8,.36a6.46,6.46,0,0,0-2.1-4.43,7.88,7.88,0,0,0-5.29-1.55q-3.43,0-4.91,1.22a3.75,3.75,0,0,0-1.48,3.05,3.59,3.59,0,0,0,1.35,2.87,28,28,0,0,0,6,3.16q7,3,8.87,4.88a9.45,9.45,0,0,1,2.84,7.08A11.82,11.82,0,0,1,709.94,58q-4.23,3.78-11.78,3.79a21.6,21.6,0,0,1-9-1.75,10.76,10.76,0,0,1-5.38-4.86A14.71,14.71,0,0,1,682.3,48Z"/><path class="cls-1" d="M736.23,61.1h-8.32L735,27.47H723.12l1.4-6.75h31.82l-1.41,6.75H743.25Z"/><path class="cls-1" d="M775.37,52.17h-16l-4.85,8.93H746l22.83-40.38H778L784.6,61.1h-7.88Zm-1-6.72L772,29.2l-9.75,16.25Z"/><path class="cls-1" d="M803.05,61.1h-8.32l7-33.63H789.94l1.4-6.75h31.82l-1.41,6.75H810.07Z"/><path class="cls-1" d="M819.58,61.1,828,20.72h8.29L827.89,61.1Z"/><path class="cls-1" d="M836.87,48l7.91-.41q.16,3.78,1.29,5.1,1.83,2.14,6.72,2.15,4.08,0,5.9-1.46a4.41,4.41,0,0,0,1.82-3.53,3.82,3.82,0,0,0-1.49-3,28.74,28.74,0,0,0-5.74-2.95,54.75,54.75,0,0,1-6.86-3.4,9.93,9.93,0,0,1-3.4-3.54,10.08,10.08,0,0,1-1.24-5.09,11,11,0,0,1,3.69-8.46Q849.16,20,856.15,20t11,3.33a12.3,12.3,0,0,1,4.28,8.87l-8,.36a6.45,6.45,0,0,0-2.09-4.43,7.91,7.91,0,0,0-5.29-1.55q-3.45,0-4.92,1.22a3.77,3.77,0,0,0-1.47,3.05,3.59,3.59,0,0,0,1.35,2.87,27.73,27.73,0,0,0,6,3.16q7,3,8.86,4.88a9.42,9.42,0,0,1,2.84,7.08A11.82,11.82,0,0,1,864.51,58q-4.23,3.78-11.77,3.79a21.57,21.57,0,0,1-9-1.75,10.78,10.78,0,0,1-5.39-4.86A14.94,14.94,0,0,1,836.87,48Z"/><path class="cls-1" d="M890.8,61.1h-8.31l7-33.63H877.69l1.41-6.75h31.81l-1.4,6.75H897.83Z"/><path class="cls-1" d="M907.33,61.1l8.46-40.38h8.29L915.65,61.1Z"/><path class="cls-1" d="M923.28,61.1l8.43-40.38H940l-3.59,17.16,18.68-17.16h11.13L948.12,36.56,961.43,61.1H952l-10-19.23-7.85,6.86L931.62,61.1Z"/><path class="cls-1" d="M258.92,128.79l8.43-40.38h8.32l-3.58,17.16,18.67-17.16h11.13l-18.12,15.84,13.3,24.54h-9.39l-10-19.23-7.85,6.86-2.59,12.37Z"/><path class="cls-1" d="M326.18,119.87h-16l-4.85,8.92H296.8l22.83-40.38h9.23l6.55,40.38h-7.88Zm-1-6.73-2.35-16.25-9.75,16.25Z"/><path class="cls-1" d="M340.42,128.79l8.46-40.38h13.8a46.62,46.62,0,0,1,6.28.28,13.14,13.14,0,0,1,5,1.65,8.23,8.23,0,0,1,3.14,3.3,9.75,9.75,0,0,1,1.07,4.58,9.32,9.32,0,0,1-1.87,5.82,11.37,11.37,0,0,1-5.78,3.73,9.12,9.12,0,0,1,4.86,3,7.69,7.69,0,0,1,1.75,4.94,12.67,12.67,0,0,1-2.07,6.9,11.61,11.61,0,0,1-5.7,4.7,28,28,0,0,1-9.94,1.43Zm9.67-6.5h8a22.81,22.81,0,0,0,6.76-.65,5.66,5.66,0,0,0,2.75-2.13,5.41,5.41,0,0,0,1-3.14,4.23,4.23,0,0,0-1.49-3.32q-1.49-1.3-5-1.31H352.3Zm3.67-17.57h6.33a22.12,22.12,0,0,0,6.14-.61A5.13,5.13,0,0,0,370,99.18a3.64,3.64,0,0,0-.88-2.53,4.39,4.39,0,0,0-2.51-1.33,33.92,33.92,0,0,0-4.38-.16h-6.44Z"/><path class="cls-1" d="M389.67,88.41H398l-4.57,21.93-1.13,5.39a8.66,8.66,0,0,0-.11,1.3,5,5,0,0,0,1.75,4,7.41,7.41,0,0,0,5.08,1.56,9.84,9.84,0,0,0,5-1.13,7.59,7.59,0,0,0,3-3.36,36.07,36.07,0,0,0,2.18-7.58l4.62-22.06h8.29l-4.6,22.09a43.48,43.48,0,0,1-3.36,10.66,14.84,14.84,0,0,1-5.75,6,18.62,18.62,0,0,1-9.75,2.32q-7.05,0-10.8-3.46a11.52,11.52,0,0,1-3.75-8.88,16.92,16.92,0,0,1,.2-2.45c.07-.59.39-2.26,1-5Z"/><path class="cls-1" d="M430.25,128.79h-8.32l8.45-40.38H446.8a18.88,18.88,0,0,1,6.93,1,8.39,8.39,0,0,1,4,3.42,10.53,10.53,0,0,1,1.49,5.69,15.56,15.56,0,0,1-1.19,6,14,14,0,0,1-2.9,4.62,12.21,12.21,0,0,1-3.71,2.63,19.73,19.73,0,0,1-5.34,1.37,64.37,64.37,0,0,1-7.33.27h-5.31Zm4.59-22.09h2.57c4.39,0,7.31-.28,8.78-.83a7.16,7.16,0,0,0,3.47-2.64,6.79,6.79,0,0,0,1.27-4,4.11,4.11,0,0,0-.65-2.39,3.58,3.58,0,0,0-1.81-1.36,19.17,19.17,0,0,0-5.22-.43H437.3Z"/><path class="cls-1" d="M481.83,119.87h-16L461,128.79h-8.53l22.83-40.38h9.23l6.55,40.38h-7.88Zm-1-6.73-2.35-16.25-9.75,16.25Z"/><path class="cls-1" d="M509.52,128.79H501.2l7.05-33.63H496.4l1.41-6.75h31.81l-1.4,6.75H516.54Z"/><path class="cls-1" d="M526.4,128.79l8.43-40.38h29.94l-1.41,6.75H541.74l-1.93,9.17h20.91l-1.4,6.75H538.41l-2.53,11h23.49l-1.43,6.75Z"/><path class="cls-1" d="M596.31,128.79h-7.74l-10.91-27.13L572,128.79h-7.73l8.42-40.38h7.77l10.94,27,5.64-27h7.71Z"/><path class="cls-1" d="M621.7,115.71l7.91-.42q.17,3.78,1.29,5.1,1.82,2.14,6.72,2.15c2.72,0,4.68-.49,5.9-1.46a4.4,4.4,0,0,0,1.81-3.53,3.81,3.81,0,0,0-1.48-3,29.52,29.52,0,0,0-5.75-3,53.11,53.11,0,0,1-6.85-3.4,10,10,0,0,1-3.41-3.54,10.18,10.18,0,0,1-1.24-5.09,10.93,10.93,0,0,1,3.7-8.46Q634,87.72,641,87.72t11,3.33a12.34,12.34,0,0,1,4.28,8.87l-8,.36a6.47,6.47,0,0,0-2.09-4.43,7.91,7.91,0,0,0-5.29-1.55q-3.45,0-4.92,1.22a3.77,3.77,0,0,0-1.47,3,3.58,3.58,0,0,0,1.35,2.87,27.72,27.72,0,0,0,6,3.17q7,3,8.87,4.87a9.45,9.45,0,0,1,2.84,7.08,11.82,11.82,0,0,1-4.23,9.13q-4.23,3.8-11.77,3.79a21.41,21.41,0,0,1-9-1.75,10.78,10.78,0,0,1-5.39-4.86A14.78,14.78,0,0,1,621.7,115.71Z"/><path class="cls-1" d="M684.5,119.87h-16l-4.85,8.92h-8.54L678,88.41h9.22l6.56,40.38h-7.88Zm-1-6.73-2.34-16.25-9.75,16.25Z"/><path class="cls-1" d="M731.08,128.79h-7.74l-10.91-27.13-5.67,27.13H699l8.43-40.38h7.76l10.94,27,5.64-27h7.72Z"/><path class="cls-1" d="M762,107.22h18.07l-3.64,17.33a33.66,33.66,0,0,1-17.29,4.93q-7.5,0-11.49-3.39-5.46-4.62-5.45-13.41a28.14,28.14,0,0,1,2.34-11.3,23,23,0,0,1,8-10.08,20.94,20.94,0,0,1,12.18-3.58q7,0,11.22,3.25a15.76,15.76,0,0,1,5.61,9.48l-7.74.88a9.73,9.73,0,0,0-3.29-5.15,9.14,9.14,0,0,0-5.72-1.74A13.31,13.31,0,0,0,752.15,103a23.68,23.68,0,0,0-1.9,9.56q0,5.09,2.31,7.53c1.54,1.62,3.8,2.44,6.78,2.44a20.79,20.79,0,0,0,5.48-.76,25.74,25.74,0,0,0,4.85-1.8l1.24-6h-10.3Z"/><path class="cls-1" d="M805.89,107.22H824l-3.64,17.33a33.74,33.74,0,0,1-17.3,4.93q-7.49,0-11.48-3.39-5.46-4.62-5.46-13.41a28.14,28.14,0,0,1,2.34-11.3,23.08,23.08,0,0,1,8-10.08,20.92,20.92,0,0,1,12.18-3.58q7,0,11.22,3.25a15.76,15.76,0,0,1,5.61,9.48l-7.74.88a9.68,9.68,0,0,0-3.3-5.15,9.11,9.11,0,0,0-5.71-1.74A13.31,13.31,0,0,0,796,103a23.68,23.68,0,0,0-1.9,9.56q0,5.09,2.31,7.53c1.54,1.62,3.8,2.44,6.78,2.44a20.84,20.84,0,0,0,5.48-.76,25.37,25.37,0,0,0,4.84-1.8l1.24-6h-10.3Z"/><path class="cls-1" d="M853.73,119.87h-16l-4.85,8.92h-8.54l22.83-40.38h9.23L863,128.79h-7.88Zm-1-6.73-2.34-16.25-9.75,16.25Z"/><path class="cls-1" d="M876.48,88.41h8.29l-4.57,21.93-1.13,5.39A8.66,8.66,0,0,0,879,117a5,5,0,0,0,1.75,4,7.41,7.41,0,0,0,5.08,1.56,9.84,9.84,0,0,0,5-1.13,7.59,7.59,0,0,0,3-3.36,36.07,36.07,0,0,0,2.18-7.58l4.62-22.06h8.29l-4.6,22.09a43.48,43.48,0,0,1-3.36,10.66,14.84,14.84,0,0,1-5.75,6,18.62,18.62,0,0,1-9.75,2.32c-4.71,0-8.3-1.15-10.8-3.46a11.52,11.52,0,0,1-3.75-8.88,16.92,16.92,0,0,1,.2-2.45c.07-.59.39-2.26,1-5Z"/></g></g></svg>